<mxfile host="app.diagrams.net" agent="Mozilla/5.0 (Windows NT 10.0; Win64; x64) AppleWebKit/537.36 (KHTML, like Gecko) Chrome/136.0.0.0 Safari/537.36 Edg/136.0.0.0" version="26.2.14">
  <diagram name="Страница — 1" id="OdD4HG6TCLOufBFb-vtZ">
    <mxGraphModel dx="2171" dy="1922" grid="1" gridSize="10" guides="1" tooltips="1" connect="1" arrows="1" fold="1" page="1" pageScale="1" pageWidth="827" pageHeight="1169" math="0" shadow="0">
      <root>
        <mxCell id="0" />
        <mxCell id="1" parent="0" />
        <mxCell id="44kAvlYFRHypITi_IRr9-67" style="edgeStyle=orthogonalEdgeStyle;rounded=0;orthogonalLoop=1;jettySize=auto;html=1;entryX=0;entryY=0.5;entryDx=0;entryDy=0;fontSize=18;" parent="1" source="44kAvlYFRHypITi_IRr9-1" target="44kAvlYFRHypITi_IRr9-66" edge="1">
          <mxGeometry relative="1" as="geometry">
            <Array as="points">
              <mxPoint x="550" y="320" />
              <mxPoint x="550" y="320" />
            </Array>
          </mxGeometry>
        </mxCell>
        <mxCell id="44kAvlYFRHypITi_IRr9-1" value="&lt;span style=&quot;font-family: &amp;quot;Times New Roman&amp;quot;;&quot;&gt;Направление на пересдачу&lt;/span&gt;" style="rounded=0;whiteSpace=wrap;html=1;fontSize=18;" parent="1" vertex="1">
          <mxGeometry x="100" y="240" width="310" height="270" as="geometry" />
        </mxCell>
        <mxCell id="44kAvlYFRHypITi_IRr9-59" style="edgeStyle=orthogonalEdgeStyle;rounded=0;orthogonalLoop=1;jettySize=auto;html=1;fontSize=18;" parent="1" source="44kAvlYFRHypITi_IRr9-5" target="44kAvlYFRHypITi_IRr9-30" edge="1">
          <mxGeometry relative="1" as="geometry">
            <Array as="points">
              <mxPoint x="1245" y="180" />
            </Array>
          </mxGeometry>
        </mxCell>
        <mxCell id="44kAvlYFRHypITi_IRr9-5" value="&lt;font face=&quot;Times New Roman&quot;&gt;Положение о ликвидации академической задолженности обучающихся&amp;nbsp;&lt;span class=&quot;docData;DOCY;v5;979;BQiAAgAAEYQCAAAGiAIAAAM6AwAABUgDAAAAAAAAAAAAAAAAAAAAAAAAAAAAAAAAAAAAAAAAAAAAAAAAAAAAAAAAAAAAAAAAAAAAAAAAAAAAAAAAAAAAAAAAAAAAAAAAAAAAAAAAAAAAAAAAAAAAAAAAAAAAAAAAAAAAAAAAAAAAAAAAAAAAAAAAAAAAAAAAAAAAAAAAAAAAAAAAAAAAAAAAAAAAAAAAAAAAAAAAAAAAAAAAAAAAAAAAAAAAAAAAAAAAAAAAAAAAAAAAAAAAAAAAAAAAAAAAAAAAAAAAAAAAAAAAAAAAAAAAAAAAAAAAAAAAAAAAAAAAAAAAAAAAAAAAAAAAAAAAAAAAAAAAAAAAAAAAAAAAAAAAAAAAAAAAAAAAAAAAAAAAAAAAAAAAAAAAAAAAAAAAAAAAAAAAAAAAAAAAAAAAAAAAAAAAAAAAAAAAAAAAAAAAAAAAAAAAAAAAAAAAAAAAAAAAAAAAAAAAAAAAAAAAAAAAAAAAAAAAAAAAAAAAAAAAAAAAAAAAAAAAAAAAAAAAAAAAAAAAAAAAAAAAAAAAAAAAAAAAAAAAAAAAAAAAAAAAAAAAAAAAAAAAAAAAAAAAAAAAAAAAAAAAAAAAAAAAAAAAAAAAAAAAAAAAAAAAAAAAAAAAAAAAAAAAAAAAAAAAAAAAAAAAAAAAAAAAAAAAAAAAAAAAAAAAAAAAAAAAAAAAAAAAAAAAAAAAAAAAAAAAAAAAAAAAAAAAAAAAAAAAAAAAAAAAAAAAAAAAAAAAAAAAAAAAAAAAAAAAAAAAAAAAAAAAAAAAAAAAAAAAAAAAAAAAAAAAAAAAAAAAAAAAAAAAAAAAAAAAAAAAAAAAAAAArgAAAACpAAAAAUQAAAABBgYAAAAmBMUCAAAFAQMJBgkAAAAnBGgBAAALAQEaBhoAAAAIBBwAAAAJAwAAABYEHAAAABwGAwAAAAEBDxsGAAAAAAJbAAAABTgAAAABHQAAAAgEHAAAAAkDAAAADAEAFgQcAAAAHAYDAAAAAQEPCBEAAAAADAAAAKsAHAQjBBgEEgS7AAUKAAAAAQAAAAAIAAAAAAUKAAAACAUAAAANAAAAAAoAAAAAAAAAABEAAAAAhwAAAAAtAAAAAQYAAAAACQYbAAAAJwQDAQAACwEBHAEAKAQAAAAAHQEAKQSgAAAAGwYAAAAAAUsAAAAoAQcpAQcqAQcrAQUTAQEIBBYAAAAWBBYAAAAZBgoAAAByAHUALQBSAFUAGgYKAAAAYQByAC0AUwBBABsGCgAAAGUAbgAtAFUAUwACAAAAAA==&quot;&gt;«МУИВ»&lt;/span&gt;&lt;/font&gt;" style="text;html=1;align=center;verticalAlign=middle;whiteSpace=wrap;rounded=0;fontSize=18;" parent="1" vertex="1">
          <mxGeometry x="1000" y="170" width="95" height="20" as="geometry" />
        </mxCell>
        <mxCell id="44kAvlYFRHypITi_IRr9-53" style="edgeStyle=orthogonalEdgeStyle;rounded=0;orthogonalLoop=1;jettySize=auto;html=1;fontSize=18;" parent="1" source="44kAvlYFRHypITi_IRr9-7" target="44kAvlYFRHypITi_IRr9-1" edge="1">
          <mxGeometry relative="1" as="geometry">
            <Array as="points">
              <mxPoint x="150" y="25" />
            </Array>
          </mxGeometry>
        </mxCell>
        <mxCell id="44kAvlYFRHypITi_IRr9-7" value="&lt;span style=&quot;font-family: &amp;quot;Times New Roman&amp;quot;;&quot;&gt;ФЗ от 29.12.2012 №273 «Об образовании в Российской Федерации»&lt;/span&gt;" style="text;html=1;align=center;verticalAlign=middle;whiteSpace=wrap;rounded=0;fontSize=18;" parent="1" vertex="1">
          <mxGeometry x="666" y="10" width="110" height="30" as="geometry" />
        </mxCell>
        <mxCell id="44kAvlYFRHypITi_IRr9-10" value="&lt;span style=&quot;color: rgb(0, 0, 0); font-family: &amp;quot;Times New Roman&amp;quot;; font-style: normal; font-variant-ligatures: normal; font-variant-caps: normal; font-weight: 400; letter-spacing: normal; orphans: 2; text-align: center; text-indent: 0px; text-transform: none; widows: 2; word-spacing: 0px; -webkit-text-stroke-width: 0px; white-space: normal; background-color: rgb(251, 251, 251); text-decoration-thickness: initial; text-decoration-style: initial; text-decoration-color: initial; float: none; display: inline !important;&quot;&gt;Список студентов&lt;/span&gt;" style="text;whiteSpace=wrap;html=1;fontSize=18;" parent="1" vertex="1">
          <mxGeometry x="-160" y="760" width="160" height="30" as="geometry" />
        </mxCell>
        <mxCell id="44kAvlYFRHypITi_IRr9-15" value="&lt;span style=&quot;color: rgb(0, 0, 0); font-family: &amp;quot;Times New Roman&amp;quot;; font-style: normal; font-variant-ligatures: normal; font-variant-caps: normal; font-weight: 400; letter-spacing: normal; orphans: 2; text-align: center; text-indent: 0px; text-transform: none; widows: 2; word-spacing: 0px; -webkit-text-stroke-width: 0px; white-space: normal; background-color: rgb(251, 251, 251); text-decoration-thickness: initial; text-decoration-style: initial; text-decoration-color: initial; float: none; display: inline !important;&quot;&gt;Студенты&lt;/span&gt;" style="text;whiteSpace=wrap;html=1;fontSize=18;" parent="1" vertex="1">
          <mxGeometry x="100" y="1320" width="68.5" height="40" as="geometry" />
        </mxCell>
        <mxCell id="lYB-k_tcPMr39Pa2z6qp-4" style="edgeStyle=orthogonalEdgeStyle;rounded=0;orthogonalLoop=1;jettySize=auto;html=1;entryX=0.5;entryY=1;entryDx=0;entryDy=0;fontSize=18;" parent="1" source="44kAvlYFRHypITi_IRr9-24" target="44kAvlYFRHypITi_IRr9-30" edge="1">
          <mxGeometry relative="1" as="geometry">
            <Array as="points">
              <mxPoint x="245" y="1260" />
              <mxPoint x="1250" y="1260" />
            </Array>
          </mxGeometry>
        </mxCell>
        <mxCell id="44kAvlYFRHypITi_IRr9-24" value="&lt;span style=&quot;color: rgb(0, 0, 0); font-family: &amp;quot;Times New Roman&amp;quot;; font-style: normal; font-variant-ligatures: normal; font-variant-caps: normal; font-weight: 400; letter-spacing: normal; orphans: 2; text-align: center; text-indent: 0px; text-transform: none; widows: 2; word-spacing: 0px; -webkit-text-stroke-width: 0px; white-space: normal; background-color: rgb(251, 251, 251); text-decoration-thickness: initial; text-decoration-style: initial; text-decoration-color: initial; float: none; display: inline !important;&quot;&gt;Заведующие кафедр&lt;/span&gt;" style="text;whiteSpace=wrap;html=1;fontSize=18;" parent="1" vertex="1">
          <mxGeometry x="220" y="1320" width="50" height="40" as="geometry" />
        </mxCell>
        <mxCell id="lYB-k_tcPMr39Pa2z6qp-16" style="edgeStyle=orthogonalEdgeStyle;rounded=0;orthogonalLoop=1;jettySize=auto;html=1;fontSize=18;" parent="1" source="44kAvlYFRHypITi_IRr9-25" target="44kAvlYFRHypITi_IRr9-29" edge="1">
          <mxGeometry relative="1" as="geometry" />
        </mxCell>
        <mxCell id="44kAvlYFRHypITi_IRr9-25" value="&lt;span style=&quot;color: rgb(0, 0, 0); font-family: &amp;quot;Times New Roman&amp;quot;; font-style: normal; font-variant-ligatures: normal; font-variant-caps: normal; font-weight: 400; letter-spacing: normal; orphans: 2; text-align: center; text-indent: 0px; text-transform: none; widows: 2; word-spacing: 0px; -webkit-text-stroke-width: 0px; white-space: normal; background-color: rgb(251, 251, 251); text-decoration-thickness: initial; text-decoration-style: initial; text-decoration-color: initial; float: none; display: inline !important;&quot;&gt;Ректор&lt;/span&gt;" style="text;whiteSpace=wrap;html=1;fontSize=18;" parent="1" vertex="1">
          <mxGeometry x="720" y="1320" width="50" height="40" as="geometry" />
        </mxCell>
        <mxCell id="UUo2lxp8RJapsqTJif-M-3" style="edgeStyle=orthogonalEdgeStyle;rounded=0;orthogonalLoop=1;jettySize=auto;html=1;entryX=0.75;entryY=1;entryDx=0;entryDy=0;fontSize=18;" parent="1" source="44kAvlYFRHypITi_IRr9-26" target="44kAvlYFRHypITi_IRr9-30" edge="1">
          <mxGeometry relative="1" as="geometry" />
        </mxCell>
        <mxCell id="44kAvlYFRHypITi_IRr9-26" value="&lt;span style=&quot;color: rgb(0, 0, 0); font-family: &amp;quot;Times New Roman&amp;quot;; font-style: normal; font-variant-ligatures: normal; font-variant-caps: normal; font-weight: 400; letter-spacing: normal; orphans: 2; text-indent: 0px; text-transform: none; widows: 2; word-spacing: 0px; -webkit-text-stroke-width: 0px; white-space: normal; background-color: rgb(251, 251, 251); text-decoration-thickness: initial; text-decoration-style: initial; text-decoration-color: initial; float: none; display: inline !important;&quot;&gt;Декан&lt;/span&gt;" style="text;whiteSpace=wrap;html=1;align=center;fontSize=18;" parent="1" vertex="1">
          <mxGeometry x="1295" y="1320" width="70" height="40" as="geometry" />
        </mxCell>
        <mxCell id="44kAvlYFRHypITi_IRr9-29" value="&lt;font face=&quot;Times New Roman&quot;&gt;Ликвидация академических задолженностей&lt;/font&gt;" style="rounded=0;whiteSpace=wrap;html=1;fontSize=18;" parent="1" vertex="1">
          <mxGeometry x="590" y="550" width="310" height="270" as="geometry" />
        </mxCell>
        <mxCell id="lYB-k_tcPMr39Pa2z6qp-6" style="edgeStyle=orthogonalEdgeStyle;rounded=0;orthogonalLoop=1;jettySize=auto;html=1;fontSize=18;" parent="1" source="44kAvlYFRHypITi_IRr9-30" target="44kAvlYFRHypITi_IRr9-109" edge="1">
          <mxGeometry relative="1" as="geometry">
            <Array as="points">
              <mxPoint x="1430" y="950" />
              <mxPoint x="1430" y="950" />
            </Array>
          </mxGeometry>
        </mxCell>
        <mxCell id="lYB-k_tcPMr39Pa2z6qp-15" style="edgeStyle=orthogonalEdgeStyle;rounded=0;orthogonalLoop=1;jettySize=auto;html=1;fontSize=18;" parent="1" source="44kAvlYFRHypITi_IRr9-30" target="44kAvlYFRHypITi_IRr9-95" edge="1">
          <mxGeometry relative="1" as="geometry">
            <Array as="points">
              <mxPoint x="1440" y="1100" />
              <mxPoint x="1440" y="1100" />
            </Array>
          </mxGeometry>
        </mxCell>
        <mxCell id="44kAvlYFRHypITi_IRr9-30" value="&lt;font face=&quot;Times New Roman&quot;&gt;&lt;span style=&quot;text-align: start; caret-color: rgb(51, 144, 236); white-space-collapse: preserve; background-color: rgb(255, 255, 255);&quot;&gt;&lt;font&gt;Протокол заседания комиссии&lt;/font&gt;&lt;/span&gt;&lt;/font&gt;" style="rounded=0;whiteSpace=wrap;html=1;fontSize=18;" parent="1" vertex="1">
          <mxGeometry x="1089" y="899" width="321" height="281" as="geometry" />
        </mxCell>
        <mxCell id="44kAvlYFRHypITi_IRr9-33" style="edgeStyle=orthogonalEdgeStyle;rounded=0;orthogonalLoop=1;jettySize=auto;html=1;entryX=0.002;entryY=0.533;entryDx=0;entryDy=0;entryPerimeter=0;fontSize=18;" parent="1" source="44kAvlYFRHypITi_IRr9-1" target="44kAvlYFRHypITi_IRr9-29" edge="1">
          <mxGeometry relative="1" as="geometry" />
        </mxCell>
        <mxCell id="44kAvlYFRHypITi_IRr9-34" value="&lt;div style=&quot;text-align: center;&quot;&gt;&lt;span style=&quot;font-family: &amp;quot;Times New Roman&amp;quot;;&quot;&gt;Приказ о назначении комиссии по ликвидации задолженностей&lt;/span&gt;&lt;br&gt;&lt;/div&gt;" style="text;whiteSpace=wrap;html=1;fontSize=18;" parent="1" vertex="1">
          <mxGeometry x="500" y="410" width="150" height="40" as="geometry" />
        </mxCell>
        <mxCell id="lYB-k_tcPMr39Pa2z6qp-7" style="edgeStyle=orthogonalEdgeStyle;rounded=0;orthogonalLoop=1;jettySize=auto;html=1;fontSize=18;" parent="1" source="44kAvlYFRHypITi_IRr9-35" target="44kAvlYFRHypITi_IRr9-29" edge="1">
          <mxGeometry relative="1" as="geometry">
            <Array as="points">
              <mxPoint x="680" y="200" />
            </Array>
          </mxGeometry>
        </mxCell>
        <mxCell id="44kAvlYFRHypITi_IRr9-35" value="&lt;span style=&quot;color: rgb(0, 0, 0); font-family: &amp;quot;Times New Roman&amp;quot;; font-style: normal; font-variant-ligatures: normal; font-variant-caps: normal; font-weight: 400; letter-spacing: normal; orphans: 2; text-align: center; text-indent: 0px; text-transform: none; widows: 2; word-spacing: 0px; -webkit-text-stroke-width: 0px; white-space: normal; background-color: rgb(251, 251, 251); text-decoration-thickness: initial; text-decoration-style: initial; text-decoration-color: initial; float: none; display: inline !important;&quot;&gt;Устав ЧОУВО «Московский Университет имени С.Ю.Витте»&lt;/span&gt;" style="text;whiteSpace=wrap;html=1;fontSize=18;" parent="1" vertex="1">
          <mxGeometry x="460" y="180" width="210" height="40" as="geometry" />
        </mxCell>
        <mxCell id="44kAvlYFRHypITi_IRr9-42" value="&lt;font face=&quot;Times New Roman&quot;&gt;Ведомость о системе академической задолженности&lt;/font&gt;" style="text;whiteSpace=wrap;html=1;align=center;fontSize=18;" parent="1" vertex="1">
          <mxGeometry x="1000" y="780" width="180" height="40" as="geometry" />
        </mxCell>
        <mxCell id="44kAvlYFRHypITi_IRr9-55" style="edgeStyle=orthogonalEdgeStyle;rounded=0;orthogonalLoop=1;jettySize=auto;html=1;entryX=0.695;entryY=0.017;entryDx=0;entryDy=0;entryPerimeter=0;exitX=0;exitY=0.5;exitDx=0;exitDy=0;fontSize=18;" parent="1" source="44kAvlYFRHypITi_IRr9-35" edge="1">
          <mxGeometry relative="1" as="geometry">
            <mxPoint x="440" y="135" as="sourcePoint" />
            <mxPoint x="315.4500000000003" y="239.5899999999997" as="targetPoint" />
          </mxGeometry>
        </mxCell>
        <mxCell id="44kAvlYFRHypITi_IRr9-58" style="edgeStyle=orthogonalEdgeStyle;rounded=0;orthogonalLoop=1;jettySize=auto;html=1;entryX=0.799;entryY=0.003;entryDx=0;entryDy=0;entryPerimeter=0;fontSize=18;" parent="1" source="44kAvlYFRHypITi_IRr9-7" target="44kAvlYFRHypITi_IRr9-30" edge="1">
          <mxGeometry relative="1" as="geometry" />
        </mxCell>
        <mxCell id="lYB-k_tcPMr39Pa2z6qp-2" style="edgeStyle=orthogonalEdgeStyle;rounded=0;orthogonalLoop=1;jettySize=auto;html=1;fontSize=18;" parent="1" source="44kAvlYFRHypITi_IRr9-62" target="44kAvlYFRHypITi_IRr9-1" edge="1">
          <mxGeometry relative="1" as="geometry" />
        </mxCell>
        <mxCell id="44kAvlYFRHypITi_IRr9-62" value="&lt;span style=&quot;font-family: &amp;quot;Times New Roman&amp;quot;;&quot;&gt;Наличие академических задолженностей&lt;/span&gt;" style="text;html=1;align=center;verticalAlign=middle;whiteSpace=wrap;rounded=0;fontSize=18;" parent="1" vertex="1">
          <mxGeometry x="-170" y="365" width="170" height="20" as="geometry" />
        </mxCell>
        <mxCell id="44kAvlYFRHypITi_IRr9-66" value="&lt;span style=&quot;color: rgb(0, 0, 0); font-family: &amp;quot;Times New Roman&amp;quot;; font-style: normal; font-variant-ligatures: normal; font-variant-caps: normal; font-weight: 400; letter-spacing: normal; orphans: 2; text-align: center; text-indent: 0px; text-transform: none; widows: 2; word-spacing: 0px; -webkit-text-stroke-width: 0px; white-space: normal; background-color: rgb(251, 251, 251); text-decoration-thickness: initial; text-decoration-style: initial; text-decoration-color: initial; float: none; display: inline !important;&quot;&gt;Индетификация студентов&lt;/span&gt;" style="text;whiteSpace=wrap;html=1;fontSize=18;" parent="1" vertex="1">
          <mxGeometry x="1560" y="300" width="190" height="40" as="geometry" />
        </mxCell>
        <mxCell id="44kAvlYFRHypITi_IRr9-73" style="edgeStyle=orthogonalEdgeStyle;rounded=0;orthogonalLoop=1;jettySize=auto;html=1;entryX=0.002;entryY=0.134;entryDx=0;entryDy=0;entryPerimeter=0;fontSize=18;" parent="1" source="44kAvlYFRHypITi_IRr9-29" target="44kAvlYFRHypITi_IRr9-30" edge="1">
          <mxGeometry relative="1" as="geometry" />
        </mxCell>
        <mxCell id="44kAvlYFRHypITi_IRr9-88" value="&lt;span style=&quot;color: rgb(0, 0, 0); font-family: &amp;quot;Times New Roman&amp;quot;; font-style: normal; font-variant-ligatures: normal; font-variant-caps: normal; font-weight: 400; letter-spacing: normal; orphans: 2; text-align: center; text-indent: 0px; text-transform: none; widows: 2; word-spacing: 0px; -webkit-text-stroke-width: 0px; white-space: normal; background-color: rgb(251, 251, 251); text-decoration-thickness: initial; text-decoration-style: initial; text-decoration-color: initial; float: none; display: inline !important;&quot;&gt;Преподаватели&lt;/span&gt;" style="text;whiteSpace=wrap;html=1;fontSize=18;" parent="1" vertex="1">
          <mxGeometry x="1117" y="1320" width="90" height="40" as="geometry" />
        </mxCell>
        <mxCell id="44kAvlYFRHypITi_IRr9-95" value="&lt;span style=&quot;color: rgb(0, 0, 0); font-family: &amp;quot;Times New Roman&amp;quot;; font-style: normal; font-variant-ligatures: normal; font-variant-caps: normal; font-weight: 400; letter-spacing: normal; orphans: 2; text-indent: 0px; text-transform: none; widows: 2; word-spacing: 0px; -webkit-text-stroke-width: 0px; white-space: normal; background-color: rgb(251, 251, 251); text-decoration-thickness: initial; text-decoration-style: initial; text-decoration-color: initial; float: none; display: inline !important;&quot;&gt;Отчетная документация по академическим задолженностям&lt;/span&gt;" style="text;whiteSpace=wrap;html=1;align=center;fontSize=18;" parent="1" vertex="1">
          <mxGeometry x="1560" y="1080" width="300" height="40" as="geometry" />
        </mxCell>
        <mxCell id="44kAvlYFRHypITi_IRr9-106" style="edgeStyle=orthogonalEdgeStyle;rounded=0;orthogonalLoop=1;jettySize=auto;html=1;entryX=0.471;entryY=0.994;entryDx=0;entryDy=0;entryPerimeter=0;fontSize=18;" parent="1" source="44kAvlYFRHypITi_IRr9-24" target="44kAvlYFRHypITi_IRr9-1" edge="1">
          <mxGeometry relative="1" as="geometry" />
        </mxCell>
        <mxCell id="44kAvlYFRHypITi_IRr9-107" style="edgeStyle=orthogonalEdgeStyle;rounded=0;orthogonalLoop=1;jettySize=auto;html=1;entryX=0.111;entryY=0.997;entryDx=0;entryDy=0;entryPerimeter=0;fontSize=18;" parent="1" source="44kAvlYFRHypITi_IRr9-15" target="44kAvlYFRHypITi_IRr9-1" edge="1">
          <mxGeometry relative="1" as="geometry" />
        </mxCell>
        <mxCell id="44kAvlYFRHypITi_IRr9-109" value="&lt;span style=&quot;color: rgb(0, 0, 0); font-family: &amp;quot;Times New Roman&amp;quot;; font-style: normal; font-variant-ligatures: normal; font-variant-caps: normal; font-weight: 400; letter-spacing: normal; orphans: 2; text-align: center; text-indent: 0px; text-transform: none; widows: 2; word-spacing: 0px; -webkit-text-stroke-width: 0px; white-space: normal; background-color: rgb(251, 251, 251); text-decoration-thickness: initial; text-decoration-style: initial; text-decoration-color: initial; float: none; display: inline !important;&quot;&gt;Ликвидация академических задолженностей&lt;/span&gt;" style="text;whiteSpace=wrap;html=1;fontSize=18;" parent="1" vertex="1">
          <mxGeometry x="1560" y="930" width="300" height="40" as="geometry" />
        </mxCell>
        <mxCell id="UUo2lxp8RJapsqTJif-M-2" style="edgeStyle=orthogonalEdgeStyle;rounded=0;orthogonalLoop=1;jettySize=auto;html=1;entryX=0.229;entryY=0.999;entryDx=0;entryDy=0;entryPerimeter=0;fontSize=18;" parent="1" source="44kAvlYFRHypITi_IRr9-88" target="44kAvlYFRHypITi_IRr9-30" edge="1">
          <mxGeometry relative="1" as="geometry" />
        </mxCell>
        <mxCell id="lYB-k_tcPMr39Pa2z6qp-12" style="edgeStyle=orthogonalEdgeStyle;rounded=0;orthogonalLoop=1;jettySize=auto;html=1;entryX=0.452;entryY=0;entryDx=0;entryDy=0;entryPerimeter=0;fontSize=18;" parent="1" source="44kAvlYFRHypITi_IRr9-64" target="44kAvlYFRHypITi_IRr9-1" edge="1">
          <mxGeometry relative="1" as="geometry" />
        </mxCell>
        <mxCell id="44kAvlYFRHypITi_IRr9-64" value="&lt;span style=&quot;color: rgb(0, 0, 0); font-family: &amp;quot;Times New Roman&amp;quot;; font-style: normal; font-variant-ligatures: normal; font-variant-caps: normal; font-weight: 400; letter-spacing: normal; orphans: 2; text-align: center; text-indent: 0px; text-transform: none; widows: 2; word-spacing: 0px; -webkit-text-stroke-width: 0px; white-space: normal; background-color: rgb(251, 251, 251); text-decoration-thickness: initial; text-decoration-style: initial; text-decoration-color: initial; float: none; display: inline !important;&quot;&gt;Сроки ликвидации академической задолженности&lt;/span&gt;" style="text;whiteSpace=wrap;html=1;fontSize=18;" parent="1" vertex="1">
          <mxGeometry x="760" y="80" width="309" height="40" as="geometry" />
        </mxCell>
        <mxCell id="lYB-k_tcPMr39Pa2z6qp-8" style="edgeStyle=orthogonalEdgeStyle;rounded=0;orthogonalLoop=1;jettySize=auto;html=1;entryX=0.928;entryY=-0.002;entryDx=0;entryDy=0;entryPerimeter=0;fontSize=18;" parent="1" source="44kAvlYFRHypITi_IRr9-5" target="44kAvlYFRHypITi_IRr9-29" edge="1">
          <mxGeometry relative="1" as="geometry" />
        </mxCell>
        <mxCell id="lYB-k_tcPMr39Pa2z6qp-10" style="edgeStyle=orthogonalEdgeStyle;rounded=0;orthogonalLoop=1;jettySize=auto;html=1;entryX=0.655;entryY=0.002;entryDx=0;entryDy=0;entryPerimeter=0;fontSize=18;" parent="1" source="44kAvlYFRHypITi_IRr9-64" target="44kAvlYFRHypITi_IRr9-29" edge="1">
          <mxGeometry relative="1" as="geometry">
            <Array as="points">
              <mxPoint x="793" y="220" />
              <mxPoint x="793" y="220" />
            </Array>
          </mxGeometry>
        </mxCell>
        <mxCell id="lYB-k_tcPMr39Pa2z6qp-11" style="edgeStyle=orthogonalEdgeStyle;rounded=0;orthogonalLoop=1;jettySize=auto;html=1;entryX=0.424;entryY=0.011;entryDx=0;entryDy=0;entryPerimeter=0;fontSize=18;" parent="1" edge="1">
          <mxGeometry relative="1" as="geometry">
            <mxPoint x="721" y="66" as="sourcePoint" />
            <mxPoint x="721.4400000000005" y="548.9699999999998" as="targetPoint" />
          </mxGeometry>
        </mxCell>
        <mxCell id="lYB-k_tcPMr39Pa2z6qp-13" style="edgeStyle=orthogonalEdgeStyle;rounded=0;orthogonalLoop=1;jettySize=auto;html=1;entryX=0.647;entryY=-0.009;entryDx=0;entryDy=0;entryPerimeter=0;fontSize=18;" parent="1" source="44kAvlYFRHypITi_IRr9-64" target="44kAvlYFRHypITi_IRr9-30" edge="1">
          <mxGeometry relative="1" as="geometry" />
        </mxCell>
        <mxCell id="lYB-k_tcPMr39Pa2z6qp-14" style="edgeStyle=orthogonalEdgeStyle;rounded=0;orthogonalLoop=1;jettySize=auto;html=1;entryX=0.002;entryY=0.83;entryDx=0;entryDy=0;entryPerimeter=0;fontSize=18;" parent="1" source="44kAvlYFRHypITi_IRr9-10" target="44kAvlYFRHypITi_IRr9-29" edge="1">
          <mxGeometry relative="1" as="geometry" />
        </mxCell>
        <mxCell id="DT0RUvdGMb2cvGSF2_C_-1" value="&lt;span style=&quot;color: rgb(0, 0, 0); font-family: &amp;quot;Times New Roman&amp;quot;; font-style: normal; font-variant-ligatures: normal; font-variant-caps: normal; font-weight: 400; letter-spacing: normal; orphans: 2; text-indent: 0px; text-transform: none; widows: 2; word-spacing: 0px; -webkit-text-stroke-width: 0px; white-space: normal; background-color: rgb(251, 251, 251); text-decoration-thickness: initial; text-decoration-style: initial; text-decoration-color: initial; float: none; display: inline !important;&quot;&gt;Справка об академической задолженности&lt;/span&gt;" style="text;whiteSpace=wrap;html=1;fontSize=18;align=center;" parent="1" vertex="1">
          <mxGeometry x="-212.5" y="1050" width="255" height="30" as="geometry" />
        </mxCell>
        <mxCell id="DT0RUvdGMb2cvGSF2_C_-2" style="edgeStyle=orthogonalEdgeStyle;rounded=0;orthogonalLoop=1;jettySize=auto;html=1;entryX=0.003;entryY=0.591;entryDx=0;entryDy=0;entryPerimeter=0;" parent="1" source="DT0RUvdGMb2cvGSF2_C_-1" target="44kAvlYFRHypITi_IRr9-30" edge="1">
          <mxGeometry relative="1" as="geometry" />
        </mxCell>
      </root>
    </mxGraphModel>
  </diagram>
</mxfile>
